<svg width="310" height="54" viewBox="0 0 310 54" fill="none" xmlns="http://www.w3.org/2000/svg">
<path d="M305 43.356V39H309.136V43.356H305Z" fill="#F13024"/>
<path d="M23.1392 25.4538L16.907 25.8374C16.8004 25.3047 16.5714 24.8253 16.2198 24.3991C15.8683 23.9624 15.4048 23.6161 14.8295 23.3604C14.2649 23.0941 13.5884 22.9609 12.8001 22.9609C11.7454 22.9609 10.8558 23.1847 10.1314 23.6321C9.40696 24.0689 9.04474 24.6548 9.04474 25.3899C9.04474 25.9759 9.27912 26.4712 9.74787 26.8761C10.2166 27.2809 11.021 27.6058 12.1609 27.8509L16.6033 28.7457C18.9897 29.2358 20.7688 30.0241 21.9407 31.1108C23.1126 32.1974 23.6985 33.625 23.6985 35.3935C23.6985 37.0021 23.2244 38.4137 22.2763 39.6282C21.3388 40.8427 20.0497 41.7908 18.4091 42.4727C16.7791 43.1438 14.8988 43.4794 12.7681 43.4794C9.51882 43.4794 6.93004 42.8029 5.00178 41.4499C3.08416 40.0863 1.96023 38.2326 1.62997 35.8888L8.32564 35.5373C8.52805 36.5281 9.01811 37.2844 9.79581 37.8065C10.5735 38.3178 11.5696 38.5735 12.7841 38.5735C13.9773 38.5735 14.9361 38.3445 15.6605 37.8864C16.3956 37.4176 16.7685 36.8157 16.7791 36.0806C16.7685 35.4627 16.5075 34.9567 15.9961 34.5625C15.4847 34.1577 14.6964 33.8487 13.631 33.6357L9.38033 32.7887C6.98331 32.3093 5.19886 31.4783 4.02699 30.2958C2.86577 29.1133 2.28516 27.6058 2.28516 25.7734C2.28516 24.1967 2.71129 22.8384 3.56357 21.6985C4.42649 20.5586 5.63565 19.6797 7.19105 19.0618C8.7571 18.4439 10.5895 18.1349 12.6882 18.1349C15.7884 18.1349 18.228 18.7901 20.0071 20.1005C21.7969 21.4109 22.8409 23.1953 23.1392 25.4538ZM34.9845 43.4634C33.4184 43.4634 32.0228 43.1918 30.7977 42.6484C29.5725 42.0945 28.6031 41.2795 27.8893 40.2035C27.1862 39.1168 26.8346 37.7638 26.8346 36.1445C26.8346 34.7809 27.085 33.6357 27.5857 32.7088C28.0864 31.782 28.7682 31.0362 29.6311 30.4716C30.4941 29.907 31.4742 29.4808 32.5715 29.1932C33.6794 28.9055 34.8406 28.7031 36.0551 28.5859C37.4827 28.4368 38.6333 28.2983 39.5068 28.1705C40.3804 28.032 41.0143 27.8295 41.4085 27.5632C41.8026 27.2969 41.9997 26.9027 41.9997 26.3807V26.2848C41.9997 25.2727 41.6801 24.4897 41.0409 23.9357C40.4124 23.3817 39.5175 23.1048 38.3563 23.1048C37.1311 23.1048 36.1563 23.3764 35.4319 23.9197C34.7075 24.4524 34.2281 25.1236 33.9937 25.9332L27.6975 25.4219C28.0171 23.9304 28.6457 22.6413 29.5832 21.5547C30.5207 20.4574 31.7298 19.6158 33.2107 19.0298C34.7021 18.4332 36.428 18.1349 38.3882 18.1349C39.7519 18.1349 41.0569 18.2947 42.3034 18.6143C43.5605 18.9339 44.6737 19.4293 45.6432 20.1005C46.6233 20.7717 47.3957 21.6346 47.9603 22.6893C48.5249 23.7333 48.8073 24.9851 48.8073 26.4446V43H42.3513V39.5962H42.1595C41.7654 40.3633 41.238 41.0398 40.5775 41.6257C39.917 42.201 39.1233 42.6538 38.1965 42.984C37.2696 43.3036 36.199 43.4634 34.9845 43.4634ZM36.934 38.7653C37.9355 38.7653 38.8197 38.5682 39.5867 38.174C40.3538 37.7692 40.9557 37.2259 41.3925 36.544C41.8293 35.8622 42.0477 35.0898 42.0477 34.2269V31.6222C41.8346 31.7607 41.5416 31.8885 41.1688 32.0057C40.8066 32.1122 40.3964 32.2134 39.9383 32.3093C39.4802 32.3945 39.0221 32.4744 38.564 32.549C38.1059 32.6129 37.6904 32.6715 37.3176 32.7248C36.5186 32.842 35.8208 33.0284 35.2242 33.2841C34.6276 33.5398 34.1642 33.886 33.8339 34.3228C33.5036 34.7489 33.3385 35.2816 33.3385 35.9208C33.3385 36.8477 33.6741 37.5561 34.3453 38.0462C35.0271 38.5256 35.89 38.7653 36.934 38.7653ZM74.5113 25.4538L68.279 25.8374C68.1725 25.3047 67.9434 24.8253 67.5919 24.3991C67.2403 23.9624 66.7769 23.6161 66.2016 23.3604C65.637 23.0941 64.9605 22.9609 64.1721 22.9609C63.1175 22.9609 62.2279 23.1847 61.5035 23.6321C60.779 24.0689 60.4168 24.6548 60.4168 25.3899C60.4168 25.9759 60.6512 26.4712 61.1199 26.8761C61.5887 27.2809 62.393 27.6058 63.5329 27.8509L67.9754 28.7457C70.3618 29.2358 72.1409 30.0241 73.3128 31.1108C74.4846 32.1974 75.0706 33.625 75.0706 35.3935C75.0706 37.0021 74.5965 38.4137 73.6483 39.6282C72.7108 40.8427 71.4218 41.7908 69.7812 42.4727C68.1512 43.1438 66.2709 43.4794 64.1402 43.4794C60.8909 43.4794 58.3021 42.8029 56.3738 41.4499C54.4562 40.0863 53.3323 38.2326 53.002 35.8888L59.6977 35.5373C59.9001 36.5281 60.3902 37.2844 61.1679 37.8065C61.9456 38.3178 62.9417 38.5735 64.1562 38.5735C65.3493 38.5735 66.3082 38.3445 67.0326 37.8864C67.7677 37.4176 68.1405 36.8157 68.1512 36.0806C68.1405 35.4627 67.8795 34.9567 67.3682 34.5625C66.8568 34.1577 66.0684 33.8487 65.0031 33.6357L60.7524 32.7887C58.3554 32.3093 56.5709 31.4783 55.3991 30.2958C54.2378 29.1133 53.6572 27.6058 53.6572 25.7734C53.6572 24.1967 54.0834 22.8384 54.9356 21.6985C55.7986 20.5586 57.0077 19.6797 58.5631 19.0618C60.1292 18.4439 61.9616 18.1349 64.0603 18.1349C67.1604 18.1349 69.6001 18.7901 71.3792 20.1005C73.1689 21.4109 74.213 23.1953 74.5113 25.4538ZM86.1648 28.8097V43H79.3572V10.2727H85.973V22.7852H86.2607C86.8146 21.3363 87.7095 20.2017 88.9453 19.3814C90.1811 18.5504 91.7312 18.1349 93.5955 18.1349C95.3001 18.1349 96.7862 18.5078 98.054 19.2536C99.3324 19.9886 100.323 21.0486 101.026 22.4336C101.74 23.8079 102.092 25.4538 102.081 27.3714V43H95.2734V28.5859C95.2841 27.0732 94.9006 25.896 94.1229 25.0543C93.3558 24.2127 92.2798 23.7919 90.8949 23.7919C89.968 23.7919 89.1477 23.989 88.4339 24.3832C87.7308 24.7773 87.1768 25.3526 86.772 26.109C86.3778 26.8548 86.1754 27.755 86.1648 28.8097ZM114.438 43.4634C112.872 43.4634 111.476 43.1918 110.251 42.6484C109.026 42.0945 108.056 41.2795 107.342 40.2035C106.639 39.1168 106.288 37.7638 106.288 36.1445C106.288 34.7809 106.538 33.6357 107.039 32.7088C107.54 31.782 108.221 31.0362 109.084 30.4716C109.947 29.907 110.927 29.4808 112.025 29.1932C113.133 28.9055 114.294 28.7031 115.508 28.5859C116.936 28.4368 118.086 28.2983 118.96 28.1705C119.834 28.032 120.467 27.8295 120.862 27.5632C121.256 27.2969 121.453 26.9027 121.453 26.3807V26.2848C121.453 25.2727 121.133 24.4897 120.494 23.9357C119.866 23.3817 118.971 23.1048 117.809 23.1048C116.584 23.1048 115.609 23.3764 114.885 23.9197C114.161 24.4524 113.681 25.1236 113.447 25.9332L107.151 25.4219C107.47 23.9304 108.099 22.6413 109.036 21.5547C109.974 20.4574 111.183 19.6158 112.664 19.0298C114.155 18.4332 115.881 18.1349 117.841 18.1349C119.205 18.1349 120.51 18.2947 121.756 18.6143C123.014 18.9339 124.127 19.4293 125.096 20.1005C126.076 20.7717 126.849 21.6346 127.413 22.6893C127.978 23.7333 128.26 24.9851 128.26 26.4446V43H121.804V39.5962H121.613C121.218 40.3633 120.691 41.0398 120.031 41.6257C119.37 42.201 118.576 42.6538 117.65 42.984C116.723 43.3036 115.652 43.4634 114.438 43.4634ZM116.387 38.7653C117.389 38.7653 118.273 38.5682 119.04 38.174C119.807 37.7692 120.409 37.2259 120.846 36.544C121.282 35.8622 121.501 35.0898 121.501 34.2269V31.6222C121.288 31.7607 120.995 31.8885 120.622 32.0057C120.26 32.1122 119.85 32.2134 119.391 32.3093C118.933 32.3945 118.475 32.4744 118.017 32.549C117.559 32.6129 117.144 32.6715 116.771 32.7248C115.972 32.842 115.274 33.0284 114.677 33.2841C114.081 33.5398 113.617 33.886 113.287 34.3228C112.957 34.7489 112.792 35.2816 112.792 35.9208C112.792 36.8477 113.127 37.5561 113.798 38.0462C114.48 38.5256 115.343 38.7653 116.387 38.7653ZM148.672 43V10.2727H151.532V23.1367H151.788C152.108 22.4016 152.566 21.6452 153.162 20.8675C153.769 20.0898 154.563 19.44 155.543 18.918C156.534 18.3853 157.78 18.119 159.283 18.119C161.296 18.119 163.065 18.6516 164.588 19.717C166.111 20.7717 167.299 22.2525 168.152 24.1594C169.004 26.0558 169.43 28.2663 169.43 30.7912C169.43 33.3267 169.004 35.5479 168.152 37.4549C167.31 39.3619 166.127 40.848 164.604 41.9134C163.091 42.9787 161.333 43.5114 159.331 43.5114C157.839 43.5114 156.593 43.245 155.591 42.7124C154.6 42.1797 153.801 41.5245 153.194 40.7468C152.587 39.9585 152.118 39.1914 151.788 38.4457H151.436V43H148.672ZM151.484 30.7433C151.484 32.7248 151.777 34.4826 152.363 36.0167C152.96 37.5401 153.812 38.7386 154.92 39.6122C156.039 40.4751 157.392 40.9066 158.979 40.9066C160.609 40.9066 161.989 40.4592 163.118 39.5643C164.247 38.6587 165.105 37.4389 165.691 35.9048C166.277 34.3707 166.57 32.6502 166.57 30.7433C166.57 28.8576 166.277 27.1584 165.691 25.6456C165.115 24.1328 164.263 22.9343 163.134 22.0501C162.005 21.1552 160.62 20.7077 158.979 20.7077C157.381 20.7077 156.023 21.1392 154.904 22.0021C153.796 22.8544 152.949 24.0369 152.363 25.5497C151.777 27.0518 151.484 28.783 151.484 30.7433ZM182.534 43.5593C181.053 43.5593 179.7 43.2717 178.475 42.6964C177.25 42.1104 176.275 41.2688 175.55 40.1715C174.826 39.0636 174.464 37.7212 174.464 36.1445C174.464 34.93 174.693 33.9073 175.151 33.0763C175.609 32.2454 176.259 31.5636 177.1 31.0309C177.942 30.4982 178.938 30.0774 180.089 29.7685C181.239 29.4595 182.507 29.2198 183.892 29.0494C185.266 28.8789 186.427 28.7298 187.376 28.6019C188.334 28.4741 189.064 28.2717 189.565 27.9947C190.066 27.7177 190.316 27.2702 190.316 26.6523V26.0771C190.316 24.4045 189.815 23.0888 188.814 22.13C187.823 21.1605 186.396 20.6758 184.531 20.6758C182.763 20.6758 181.319 21.0646 180.201 21.8423C179.093 22.62 178.315 23.5362 177.867 24.5909L175.167 23.6161C175.721 22.2738 176.488 21.2031 177.468 20.4041C178.448 19.5945 179.545 19.0138 180.76 18.6623C181.974 18.3001 183.205 18.119 184.451 18.119C185.389 18.119 186.364 18.2415 187.376 18.4865C188.398 18.7315 189.347 19.1577 190.22 19.7649C191.094 20.3615 191.802 21.1978 192.345 22.2738C192.889 23.3391 193.16 24.6921 193.16 26.3327V43H190.316V39.1168H190.14C189.799 39.8413 189.293 40.5444 188.622 41.2262C187.951 41.908 187.109 42.4673 186.097 42.9041C185.085 43.3409 183.897 43.5593 182.534 43.5593ZM182.917 40.9545C184.43 40.9545 185.74 40.619 186.848 39.9478C187.956 39.2766 188.809 38.3871 189.405 37.2791C190.012 36.1605 190.316 34.93 190.316 33.5877V30.0401C190.103 30.2425 189.746 30.4237 189.245 30.5835C188.755 30.7433 188.185 30.8871 187.535 31.0149C186.896 31.1321 186.257 31.2333 185.618 31.3185C184.979 31.4038 184.403 31.4783 183.892 31.5423C182.507 31.7127 181.324 31.979 180.344 32.3413C179.364 32.7035 178.613 33.2042 178.091 33.8434C177.569 34.4719 177.308 35.2816 177.308 36.2724C177.308 37.7638 177.841 38.9197 178.906 39.7401C179.972 40.5497 181.309 40.9545 182.917 40.9545ZM201.318 43V10.2727H204.179V23.1367H204.434C204.754 22.4016 205.212 21.6452 205.809 20.8675C206.416 20.0898 207.21 19.44 208.19 18.918C209.18 18.3853 210.427 18.119 211.929 18.119C213.943 18.119 215.711 18.6516 217.234 19.717C218.758 20.7717 219.946 22.2525 220.798 24.1594C221.65 26.0558 222.076 28.2663 222.076 30.7912C222.076 33.3267 221.65 35.5479 220.798 37.4549C219.956 39.3619 218.774 40.848 217.25 41.9134C215.738 42.9787 213.98 43.5114 211.977 43.5114C210.486 43.5114 209.239 43.245 208.238 42.7124C207.247 42.1797 206.448 41.5245 205.841 40.7468C205.233 39.9585 204.765 39.1914 204.434 38.4457H204.083V43H201.318ZM204.131 30.7433C204.131 32.7248 204.424 34.4826 205.01 36.0167C205.606 37.5401 206.459 38.7386 207.566 39.6122C208.685 40.4751 210.038 40.9066 211.625 40.9066C213.255 40.9066 214.635 40.4592 215.764 39.5643C216.894 38.6587 217.751 37.4389 218.337 35.9048C218.923 34.3707 219.216 32.6502 219.216 30.7433C219.216 28.8576 218.923 27.1584 218.337 25.6456C217.762 24.1328 216.91 22.9343 215.78 22.0501C214.651 21.1552 213.266 20.7077 211.625 20.7077C210.027 20.7077 208.669 21.1392 207.551 22.0021C206.443 22.8544 205.596 24.0369 205.01 25.5497C204.424 27.0518 204.131 28.783 204.131 30.7433ZM229.427 52.2045C228.863 52.2045 228.335 52.1513 227.845 52.0447C227.355 51.9382 226.966 51.821 226.679 51.6932L227.446 49.1843C228.415 49.4826 229.278 49.5891 230.035 49.5039C230.791 49.4293 231.462 49.0884 232.048 48.4812C232.634 47.8846 233.156 46.9684 233.614 45.7326L234.509 43.2397L225.48 18.4545H228.564L235.851 39.2447H236.075L243.362 18.4545H246.446L236.059 46.8832C235.622 48.0657 235.084 49.0511 234.445 49.8395C233.806 50.6385 233.065 51.2298 232.224 51.6133C231.393 52.0075 230.461 52.2045 229.427 52.2045ZM267.608 33.6197V18.4545H270.452V43H267.608V38.9251H267.384C266.809 40.1822 265.898 41.2315 264.651 42.0732C263.405 42.9041 261.882 43.3196 260.081 43.3196C258.515 43.3196 257.125 42.9787 255.91 42.2969C254.696 41.6044 253.742 40.5923 253.05 39.2607C252.357 37.929 252.011 36.2937 252.011 34.3548V18.4545H254.856V34.179C254.856 36.0966 255.42 37.6413 256.55 38.8132C257.679 39.9744 259.128 40.555 260.896 40.555C262.004 40.555 263.069 40.2887 264.092 39.756C265.115 39.2234 265.956 38.4457 266.617 37.4229C267.278 36.3896 267.608 35.1218 267.608 33.6197ZM280.572 33.7315L280.54 30.0082H281.179L292.685 18.4545H296.28L284.918 29.8324L284.663 29.8803L280.572 33.7315ZM277.983 43V10.2727H280.827V43H277.983ZM293.276 43L283.304 30.3917L285.35 28.4261L296.919 43H293.276Z" fill="white"/>
</svg>
